<svg xmlns="http://www.w3.org/2000/svg" width="32" height="32" viewBox="0 0 32 32">
  <!-- 基础圆形 -->
  <circle cx="16" cy="16" r="16" fill="#FF6B35" />
  
  <!-- 碗 -->
  <path d="M8 18C8 14.5 11.5 11 16 11C20.5 11 24 14.5 24 18" stroke="white" stroke-width="2" fill="none" />
  
  <!-- 勺子 -->
  <path d="M12 13L10 8" stroke="white" stroke-width="2" stroke-linecap="round" />
  
  <!-- 筷子 -->
  <path d="M20 13L22 8" stroke="white" stroke-width="2" stroke-linecap="round" />
  <path d="M18 13L19 8" stroke="white" stroke-width="2" stroke-linecap="round" />
  
  <!-- 蒸汽 -->
  <path d="M14 10C14 9 14.5 8 16 8C17.5 8 18 9 18 10" stroke="white" stroke-width="1.5" fill="none" />
  <path d="M12 9C12 8 12.5 7 13.5 7C14.5 7 15 8 15 9" stroke="white" stroke-width="1.5" fill="none" />
  <path d="M16 9C16 8 16.5 7 17.5 7C18.5 7 19 8 19 9" stroke="white" stroke-width="1.5" fill="none" />
</svg> 